<svg xmlns="http://www.w3.org/2000/svg" width="1280" height="640" viewBox="0 0 1280 640" role="img" aria-label="practice-fusion-mcp — FHIR-first, read-only MCP server for Practice Fusion">
  <defs>
    <linearGradient id="bg" x1="0" y1="0" x2="1" y2="1">
      <stop offset="0" stop-color="#0b1220"/>
      <stop offset="0.55" stop-color="#0e2233"/>
      <stop offset="1" stop-color="#0a2b2b"/>
    </linearGradient>
    <linearGradient id="accent" x1="0" y1="0" x2="1" y2="1">
      <stop offset="0" stop-color="#2dd4bf"/>
      <stop offset="1" stop-color="#38bdf8"/>
    </linearGradient>
    <style>
      .t { font-family: ui-sans-serif, system-ui, -apple-system, "Segoe UI", Roboto, Helvetica, Arial, sans-serif; }
    </style>
  </defs>

  <rect width="1280" height="640" fill="url(#bg)"/>

  <g stroke="#1e3a4a" stroke-width="2" opacity="0.5">
    <line x1="980" y1="140" x2="1110" y2="210"/>
    <line x1="1110" y1="210" x2="1030" y2="330"/>
    <line x1="1030" y1="330" x2="1160" y2="380"/>
    <line x1="1110" y1="210" x2="1200" y2="150"/>
    <line x1="980" y1="140" x2="1030" y2="330"/>
    <line x1="1030" y1="330" x2="980" y2="460"/>
  </g>
  <g fill="url(#accent)" opacity="0.9">
    <circle cx="980" cy="140" r="8"/>
    <circle cx="1110" cy="210" r="9"/>
    <circle cx="1030" cy="330" r="8"/>
    <circle cx="1160" cy="380" r="6"/>
    <circle cx="1200" cy="150" r="6"/>
    <circle cx="980" cy="460" r="7"/>
  </g>

  <g transform="translate(112,168)">
    <rect width="140" height="140" rx="30" fill="url(#accent)"/>
    <rect x="60" y="26" width="20" height="88" rx="6" fill="#0b1220"/>
    <rect x="26" y="60" width="88" height="20" rx="6" fill="#0b1220"/>
  </g>

  <text x="112" y="392" class="t" font-size="82" font-weight="700" fill="#f1f5f9">practice-fusion-mcp</text>
  <text x="114" y="446" class="t" font-size="32" font-weight="500" fill="#93c5b6">FHIR-first · read-only · audit-logged MCP server for Practice Fusion</text>

  <g class="t" font-size="24" font-weight="600">
    <g transform="translate(114,494)">
      <rect width="176" height="52" rx="26" fill="#0f2a2a" stroke="#1f5148"/>
      <text x="88" y="34" text-anchor="middle" fill="#5eead4">12 read tools</text>
    </g>
    <g transform="translate(306,494)">
      <rect width="128" height="52" rx="26" fill="#0f2333" stroke="#1e4a63"/>
      <text x="64" y="34" text-anchor="middle" fill="#7dd3fc">FHIR R4</text>
    </g>
    <g transform="translate(450,494)">
      <rect width="184" height="52" rx="26" fill="#141b2e" stroke="#33415a"/>
      <text x="92" y="34" text-anchor="middle" fill="#cbd5e1">SMART auth</text>
    </g>
    <g transform="translate(650,494)">
      <rect width="150" height="52" rx="26" fill="#161d20" stroke="#3a4a3f"/>
      <text x="75" y="34" text-anchor="middle" fill="#a7f3d0">MCP · MIT</text>
    </g>
  </g>
</svg>
